# xmcd
#
# Track frame offsets:
#	150
#	14937
#	29446
#	44111
#	58621
#	73043
#	86068
#	100104
#	113492
#	124473
#	136734
#
# Disc length: 2019 seconds
#
# Revision: 5
# Processed by: cddbd v1.5.2PL0 Copyright (c) Steve Scherf et al.
# Submitted via: EasyCDDAExtractor 15.3.0.1
#
DISCID=a007e10b
DTITLE=Ana Gabriel - Tradicional
DYEAR=2004
DGENRE=Latin
TTITLE0=Con Las Alas Atadas
TTITLE1=La Araña
TTITLE2=Volver, Volver
TTITLE3=Me Robaste El Amor
TTITLE4=Simon Blanco
TTITLE5=Que Te Vaya Bonito
TTITLE6=Al Maestro Con Cariño
TTITLE7=Amarga Navidad
TTITLE8=Peladito Y En La Boca
TTITLE9=Tu Y Las Nubes
TTITLE10=Y Tu No Estas
EXTD=
EXTT0=
EXTT1=
EXTT2=
EXTT3=
EXTT4=
EXTT5=
EXTT6=
EXTT7=
EXTT8=
EXTT9=
EXTT10=
PLAYORDER=
